<?xml version="1.0" standalone="no"?><!DOCTYPE svg PUBLIC "-//W3C//DTD SVG 1.1//EN" "http://www.w3.org/Graphics/SVG/1.1/DTD/svg11.dtd"><svg class="icon" style="" viewBox="0 0 1024 1024" version="1.1" xmlns="http://www.w3.org/2000/svg" p-id="2478" xmlns:xlink="http://www.w3.org/1999/xlink" width="200" height="200"><defs><style type="text/css"><![CDATA[

]]></style></defs><path d="M512.061439 567.858083c105.879482 0 191.99616-86.137157 191.99616-191.99616s-86.116678-191.99616-191.99616-191.99616c-105.879482 0-191.99616 86.116678-191.99616 191.99616s86.116678 191.99616 191.99616 191.99616zM512.061439 215.875362c88.246555 0 160.00704 71.740005 160.00704 160.00704s-71.740005 160.00704-160.00704 160.00704c-88.246555 0-160.00704-71.740005-160.00704-160.00704s71.740005-159.98656 160.00704-159.98656zM512 0c-211.779444 0-383.99232 170.103478-383.99232 384.033279 0 223.98528 192.037119 453.151897 332.01512 614.203396 0.51199 0.634867 22.9781 25.763325 50.748425 25.763325 0.061439 0 2.334673 0 2.457551 0 27.749845 0 50.236435-25.128457 50.748425-25.763325 140.059919-161.051499 332.056079-390.177156 332.056079-614.203396 0-213.909322-172.253835-384.033279-384.053759-384.033279zM515.747765 956.233035c-0.675826 0.634867-2.621388 2.047959-4.321194 3.133377-0.327673-0.860143-2.682826-2.744265-4.136877-4.259755-117.286614-134.940021-315.283294-362.673067-315.283294-571.093858 0-176.452151 143.582408-320.034559 319.9936-320.034559 176.51359 0 320.055039 143.582408 320.055039 320.055039 0 208.379832-198.01716 436.112878-316.307274 572.179276z" p-id="2479"></path></svg>